# xmcd
#
# Track frame offsets:
#	150
#	15154
#	34900
#	51210
#	67533
#	91251
#	102576
#	120351
#	133665
#	146242
#	160304
#	178043
#	195249
#	211622
#	227447
#	238143
#	256161
#	274050
#
# Disc length: 3929 seconds
#
# Revision: 0
# Processed by: cddbd v1.5.2PL0 Copyright (c) Steve Scherf et al.
# Submitted via: audiograbber 1.83.01
#
DISCID=e80f5712
DTITLE=Amy Winehouse - SFWS170
DYEAR=1900
DGENRE=POP
TTITLE0=Boy Baby
TTITLE1=Back To Black
TTITLE2=Body and Soul
TTITLE3=F*** Me Pumps
TTITLE4=Help Yourself
TTITLE5=I Heard Love Is Blind
TTITLE6=Like Smoke
TTITLE7=Love Is A Losing Game
TTITLE8=Me and Mr. Jones
TTITLE9=Our Day Will Come
TTITLE10=Rehab
TTITLE11=Stranger Than Me
TTITLE12=Take The Box
TTITLE13=Tears Dry On Their Own
TTITLE14=There Is No Greater Love
TTITLE15=Valerie
TTITLE16=Wake Up Alone
TTITLE17=You Know I`m No Good
EXTD=
EXTT0=
EXTT1=
EXTT2=
EXTT3=
EXTT4=
EXTT5=
EXTT6=
EXTT7=
EXTT8=
EXTT9=
EXTT10=
EXTT11=
EXTT12=
EXTT13=
EXTT14=
EXTT15=
EXTT16=
EXTT17=
PLAYORDER=
